<svg xmlns="http://www.w3.org/2000/svg" width="63.624" height="50" viewBox="0 0 63.624 50">
  <path id="cart" d="M63.485,22.272l-7.4,23.306a3.922,3.922,0,0,1-3.734,2.766H23.79a4.078,4.078,0,0,1-3.8-2.559L9.059,16.533H2.766a2.766,2.766,0,0,1,0-5.533H11a2.832,2.832,0,0,1,2.628,1.867L24.9,42.812H51.176L57.054,24.14H24.481a2.766,2.766,0,1,1,0-5.533H60.858a2.75,2.75,0,0,1,2.213,1.176A2.682,2.682,0,0,1,63.485,22.272ZM25.173,52.01a4.486,4.486,0,1,0,3.181,1.314A4.561,4.561,0,0,0,25.173,52.01ZM50,52.01a4.486,4.486,0,1,0,3.181,1.314A4.561,4.561,0,0,0,50,52.01Z" transform="translate(0 -11)" fill="#fff"/>
</svg>
