<svg xmlns="http://www.w3.org/2000/svg" width="50" height="50" viewBox="0 0 50 50">
  <path id="facebook-square" d="M168.625,128A9.391,9.391,0,0,1,178,137.375v31.25A9.391,9.391,0,0,1,168.625,178h-6.12V158.632h6.478l.977-7.552h-7.454v-4.818a4.173,4.173,0,0,1,.765-2.734,3.8,3.8,0,0,1,2.979-.911l3.971-.033v-6.738a43.636,43.636,0,0,0-5.794-.293,9.669,9.669,0,0,0-7.08,2.6q-2.653,2.6-2.653,7.357v5.566h-6.51v7.552h6.51V178H137.375A9.391,9.391,0,0,1,128,168.625v-31.25A9.391,9.391,0,0,1,137.375,128Z" transform="translate(-128 -128)" fill="#ef8216"/>
</svg>
