<svg xmlns="http://www.w3.org/2000/svg" width="50" height="50" viewBox="0 0 50 50">
  <path id="instagram" d="M161.333,153a8.335,8.335,0,1,0-2.441,5.892A8.029,8.029,0,0,0,161.333,153Zm4.492,0a12.781,12.781,0,1,1-3.743-9.082A12.367,12.367,0,0,1,165.826,153Zm3.516-13.346a3,3,0,1,1-.879-2.116A2.884,2.884,0,0,1,169.341,139.654ZM153,132.492l-2.49-.016q-2.262-.016-3.434,0t-3.141.1a25.794,25.794,0,0,0-3.353.326,13.052,13.052,0,0,0-2.327.6,8.523,8.523,0,0,0-4.753,4.753,13.052,13.052,0,0,0-.6,2.327,25.794,25.794,0,0,0-.326,3.353q-.081,1.969-.1,3.141t0,3.434q.016,2.262.016,2.49t-.016,2.49q-.016,2.262,0,3.434t.1,3.141a25.794,25.794,0,0,0,.326,3.353,13.051,13.051,0,0,0,.6,2.327,8.523,8.523,0,0,0,4.753,4.753,13.053,13.053,0,0,0,2.327.6,25.8,25.8,0,0,0,3.353.326q1.969.081,3.141.1t3.434,0l2.49-.016,2.49.016q2.262.016,3.434,0t3.141-.1a25.8,25.8,0,0,0,3.353-.326,13.053,13.053,0,0,0,2.327-.6,8.523,8.523,0,0,0,4.753-4.753,13.053,13.053,0,0,0,.6-2.327,25.8,25.8,0,0,0,.326-3.353q.081-1.969.1-3.141t0-3.434q-.016-2.262-.016-2.49t.016-2.49q.016-2.262,0-3.434t-.1-3.141a25.8,25.8,0,0,0-.326-3.353,13.053,13.053,0,0,0-.6-2.327,8.523,8.523,0,0,0-4.753-4.753,13.051,13.051,0,0,0-2.327-.6,25.794,25.794,0,0,0-3.353-.326q-1.969-.081-3.141-.1t-3.434,0ZM178,153q0,7.454-.163,10.319-.326,6.771-4.036,10.482t-10.482,4.036Q160.454,178,153,178t-10.319-.163q-6.771-.326-10.482-4.036t-4.036-10.482Q128,160.454,128,153t.163-10.319q.326-6.771,4.036-10.482t10.482-4.036Q145.546,128,153,128t10.319.163q6.771.326,10.482,4.036t4.036,10.482Q178,145.546,178,153Z" transform="translate(-128 -128)" fill="#ef8216"/>
</svg>
