<svg xmlns="http://www.w3.org/2000/svg" width="50" height="50" viewBox="0 0 50 50">
  <path id="phone-square" d="M169.667,162.668a1.514,1.514,0,0,0-.065-.521,1.913,1.913,0,0,0-.586-.537,13.255,13.255,0,0,0-1.318-.814q-.8-.439-1.546-.863t-1.481-.814q-.732-.391-.928-.488-.163-.1-.618-.423a5.012,5.012,0,0,0-.814-.488,1.652,1.652,0,0,0-.684-.163,1.937,1.937,0,0,0-1.188.667,11.1,11.1,0,0,0-1.286,1.465,12.7,12.7,0,0,1-1.253,1.465,1.823,1.823,0,0,1-1.09.667,1.592,1.592,0,0,1-.537-.114,5.1,5.1,0,0,1-.5-.212q-.2-.1-.553-.309t-.456-.277a24.5,24.5,0,0,1-5.534-4.118,25.944,25.944,0,0,1-4.134-5.55q-.065-.1-.277-.456t-.309-.553a5.1,5.1,0,0,1-.212-.5,1.592,1.592,0,0,1-.114-.537,1.823,1.823,0,0,1,.667-1.09,12.7,12.7,0,0,1,1.465-1.253,11.1,11.1,0,0,0,1.465-1.286,1.937,1.937,0,0,0,.667-1.188,1.652,1.652,0,0,0-.163-.684,5.013,5.013,0,0,0-.488-.814q-.326-.456-.423-.618-.1-.2-.488-.928t-.814-1.481q-.423-.749-.863-1.546a13.258,13.258,0,0,0-.814-1.318,1.913,1.913,0,0,0-.537-.586,1.514,1.514,0,0,0-.521-.065,8.577,8.577,0,0,0-3.288.716,5.874,5.874,0,0,0-2.6,3.076,10.332,10.332,0,0,0-1.107,4.248,8.062,8.062,0,0,0,.081,1.107q.081.586.163.993a10.69,10.69,0,0,0,.293,1.074q.212.667.326.96t.407,1.074q.293.781.358.977a33.109,33.109,0,0,0,17.48,17.48q.2.065.977.358t1.074.407q.293.114.96.326a10.688,10.688,0,0,0,1.074.293q.407.081.993.163a8.064,8.064,0,0,0,1.107.081,10.332,10.332,0,0,0,4.248-1.107,5.875,5.875,0,0,0,3.076-2.6A8.577,8.577,0,0,0,169.667,162.668ZM178,137.375v31.25A9.391,9.391,0,0,1,168.625,178h-31.25A9.391,9.391,0,0,1,128,168.625v-31.25A9.391,9.391,0,0,1,137.375,128h31.25A9.391,9.391,0,0,1,178,137.375Z" transform="translate(-128 -128)" fill="#ef8216"/>
</svg>
