<svg xmlns="http://www.w3.org/2000/svg" width="50" height="50" viewBox="0 0 50 50">
  <path id="twitter-square" d="M169.667,143.69a14.482,14.482,0,0,1-3.939,1.107,6.644,6.644,0,0,0,3.027-3.809,13.6,13.6,0,0,1-4.362,1.66,6.5,6.5,0,0,0-4.98-2.148,6.835,6.835,0,0,0-6.836,6.836,6.273,6.273,0,0,0,.163,1.563,19.564,19.564,0,0,1-14.128-7.161,6.77,6.77,0,0,0-.944,3.451,6.447,6.447,0,0,0,2.962,5.7,8.064,8.064,0,0,1-3.255-.846v.065A6.5,6.5,0,0,0,139,154.449a6.837,6.837,0,0,0,4,2.36,6.35,6.35,0,0,1-1.66.26,9.171,9.171,0,0,1-1.27-.13,6.949,6.949,0,0,0,2.425,3.385,6.5,6.5,0,0,0,3.955,1.367,13.507,13.507,0,0,1-8.5,2.93,13.119,13.119,0,0,1-1.628-.1,19.176,19.176,0,0,0,10.482,3.06,19.919,19.919,0,0,0,6.836-1.156,17.608,17.608,0,0,0,5.469-3.092,20.532,20.532,0,0,0,3.923-4.46,19.7,19.7,0,0,0,3.239-10.758,8.679,8.679,0,0,0-.033-.879A13.286,13.286,0,0,0,169.667,143.69ZM178,137.375v31.25A9.391,9.391,0,0,1,168.625,178h-31.25A9.391,9.391,0,0,1,128,168.625v-31.25A9.391,9.391,0,0,1,137.375,128h31.25A9.391,9.391,0,0,1,178,137.375Z" transform="translate(-128 -128)" fill="#ef8216"/>
</svg>
